<svg id="visual" viewBox="0 0 900 900" width="900" height="900" xmlns="http://www.w3.org/2000/svg" xmlns:xlink="http://www.w3.org/1999/xlink" version="1.1"><g transform="translate(461.62605125193113 460.85775086150363)"><path d="M141.8 -210.1C188.5 -190.7 234.4 -159.3 248.8 -116.8C263.3 -74.3 246.5 -20.6 227.5 24.7C208.5 70 187.4 107.1 159 135.3C130.7 163.5 95 183 56.7 195.1C18.4 207.2 -22.6 212 -73.7 214C-124.8 215.9 -186 215 -217.1 184.9C-248.2 154.8 -249.3 95.4 -259.3 36.3C-269.3 -22.7 -288.1 -81.5 -269.9 -124.1C-251.7 -166.7 -196.4 -193.1 -145.2 -210.4C-94.1 -227.7 -47 -235.9 0.3 -236.3C47.6 -236.7 95.2 -229.4 141.8 -210.1" fill="#FFFFFF"></path></g></svg>