<svg id="visual" viewBox="0 0 960 250" width="960" height="250" xmlns="http://www.w3.org/2000/svg" xmlns:xlink="http://www.w3.org/1999/xlink" version="1.1"><path d="M0 21L22.8 20.8C45.7 20.7 91.3 20.3 137 17.7C182.7 15 228.3 10 274 6.7C319.7 3.3 365.3 1.7 411.2 3.3C457 5 503 10 548.8 12.7C594.7 15.3 640.3 15.7 686 16.5C731.7 17.3 777.3 18.7 823 17.7C868.7 16.7 914.3 13.3 937.2 11.7L960 10L960 0L937.2 0C914.3 0 868.7 0 823 0C777.3 0 731.7 0 686 0C640.3 0 594.7 0 548.8 0C503 0 457 0 411.2 0C365.3 0 319.7 0 274 0C228.3 0 182.7 0 137 0C91.3 0 45.7 0 22.8 0L0 0Z" fill="#000a13" stroke-linecap="round" stroke-linejoin="miter"></path></svg>